<?xml version="1.0" encoding="utf-8"?>
<!-- Generator: Adobe Illustrator 25.0.0, SVG Export Plug-In . SVG Version: 6.00 Build 0)  -->
<svg version="1.1" id="Layer_1" xmlns="http://www.w3.org/2000/svg" xmlns:xlink="http://www.w3.org/1999/xlink" x="0px" y="0px"
	 viewBox="0 0 200 60" style="enable-background:new 0 0 200 60;" xml:space="preserve">
<style type="text/css">
	.st0{fill-rule:evenodd;clip-rule:evenodd;fill:#3D3D3D;}
	.st1{fill-rule:evenodd;clip-rule:evenodd;fill:#2EC4F3;}
	.st2{fill-rule:evenodd;clip-rule:evenodd;fill:#EC1260;}
</style>
<path class="st0" d="M93.51,30.64v11.88c0,0.87,0.71,1.68,1.6,1.68c2.07,0,1.89-1.49,1.89-2.95c0-1.49,0-2.98,0-4.47
	c0.71,0.51,0.95,0.95,2.13,1.46c1.95,0.82,4.44,0.92,6.34-0.08c1.01-0.54,1.54-0.98,2.31-1.77c0.12-0.16,0.3-0.37,0.41-0.54
	c0.71-0.92,1.42-2.42,1.6-3.56c0.41-2.64,0.12-4.1-0.24-6.71c-0.18-1.2-0.41-2.69-0.89-3.6c-0.18-0.43-0.65-0.92-1.07-1.12
	c-1.84-0.89-5.33,0.23-7.23,1.03l-1.48,0.79c-1.9,1.06-3.61,2.27-4.56,4.33c-0.3,0.56-0.47,0.99-0.59,1.62
	C93.63,29.24,93.51,29.94,93.51,30.64 M101.98,35.72c-1.66,0-2.55-0.25-3.73-1.43c-1.84-1.82-1.78-5.47,0-7.3
	c2.67-2.76,8.17-1.46,8.17,3.81c0,1.13-0.24,1.86-0.77,2.72C105,34.68,103.46,35.72,101.98,35.72z"/>
<path class="st0" d="M112.82,29.59c0,3.34,0.24,4.49,2.13,6.93c0.36,0.51,1.6,1.37,2.19,1.65c0.47,0.23,0.95,0.37,1.48,0.51
	c2.25,0.56,4.8-0.02,6.46-1.46c0.24-0.19,0.3-0.36,0.59-0.43c0,1.18-0.24,2.14,0.77,2.76c0.89,0.57,2.67,0.23,2.67-1.79v-6.65
	c0-3.98-1.84-6.6-5.15-8.23c-1.48-0.73-1.24-0.73-3.32-1.23c-1.42-0.34-6.22-2.61-7.23-0.06c-0.36,0.92-0.53,4.18-0.53,5.2
	c0,0.57-0.06,0.88-0.12,1.35C112.76,28.62,112.82,29.1,112.82,29.59 M120.93,25.58c4.68,0,6.1,5.73,3.55,8.65
	c-1.95,2.19-5.86,2.05-7.58-0.79c-0.53-0.78-0.77-1.96-0.71-2.89c0.06-1.83,0.71-3.15,1.95-4.07
	C118.92,25.92,119.87,25.58,120.93,25.58z"/>
<path class="st0" d="M164.41,24.6c-0.24-0.14-0.3-0.25-0.47-0.4c-0.95-0.87-2.78-1.72-4.15-1.72c-1.36,0-2.37-0.03-3.67,0.59
	c-2.61,1.23-4.03,3.51-4.44,6.34c-0.06,0.34-0.06,0.61-0.06,0.93c-0.18,1.65,0.53,4.05,1.48,5.25c0.59,0.75,0.77,0.96,1.42,1.51
	c0.53,0.42,1.24,0.87,1.84,1.13c1.42,0.61,3.61,0.89,5.15,0.5c2.61-0.68,4.32-1.96,5.57-4.46c0.42-0.79,0.77-2.17,0.77-3.31V17.47
	c0-1.74-2.67-2.28-3.38-0.5c-0.18,0.57-0.06,1.74-0.06,2.47C164.41,21.17,164.41,22.88,164.41,24.6 M160.08,35.72
	c-1.54,0-2.78-0.3-3.79-1.49c-1.07-1.2-1.36-2.08-1.36-3.81c0-1.85,1.18-3.73,2.78-4.41c2.55-1.12,5.33-0.05,6.4,2.56
	c1.01,2.42,0.12,5.39-2.13,6.63C161.5,35.46,160.79,35.72,160.08,35.72z"/>
<path class="st0" d="M171.63,30.35c0,2.05,0.47,4.12,1.72,5.68c0.18,0.2,0.3,0.31,0.47,0.53c1.12,1.4,3.49,2.33,5.39,2.33
	c1.66,0,2.9-0.47,4.2-1.26c0.36-0.26,0.77-0.7,1.01-0.85c0,0.61,0.18,1.09,0.47,1.43c1.13,1.23,3.08,0.56,3.08-1.51
	c0-2.61,0.24-6.59-0.47-8.81c-1.01-3.01-4.03-5.42-7.11-5.42c-2.07,0-2.96,0.06-4.86,1.12c-0.18,0.11-0.35,0.25-0.59,0.39
	c-1.18,0.9-1.95,1.83-2.61,3.22C171.99,27.92,171.63,29.29,171.63,30.35 M179.8,25.58c4.15,0,6.34,5.02,3.55,8.59
	c-0.83,1.09-2.19,1.55-3.79,1.55c-1.42,0-2.55-0.76-3.26-1.54c-1.42-1.49-1.6-3.7-0.89-5.61c0.3-0.87,0.89-1.54,1.6-2.1
	C177.73,25.92,178.8,25.58,179.8,25.58z"/>
<path class="st0" d="M27.43,17.39v19.63c0,0.78,0.76,1.51,1.53,1.51c0.76,0,1.47-0.18,1.7-1.03c0.23-0.58,0-3.69,0.06-4.6
	c0.06-0.4,1.11-1.17,1.23-1.2c0.06,0.26,0.53,0.69,0.7,0.95l4.46,5.55c0.76,0.83,1.94,0.65,2.52-0.14c0.35-0.43,0.47-1,0.23-1.58
	c-0.06-0.31-1.58-2.06-1.82-2.35l-3.23-4.01c-0.18-0.19-0.35-0.38-0.47-0.58l4.75-4.26c0.7-0.66,1.11-1.51,0.41-2.38
	c-0.65-0.8-1.64-0.78-2.41-0.15c-0.59,0.52-2.11,2.02-2.7,2.45c-0.18,0.15-0.23,0.23-0.41,0.4c-0.24,0.2-0.29,0.23-0.53,0.42
	c-0.12,0.14-0.24,0.26-0.41,0.42c-0.18,0.17-0.29,0.2-0.47,0.4c-0.18,0.2-0.24,0.23-0.41,0.38l-0.94,0.82
	c-0.18,0.18-0.23,0.32-0.53,0.4V17.84c0.06-1.31-0.35-1.95-1.76-1.95C28.19,15.89,27.43,16.61,27.43,17.39"/>
<path class="st0" d="M136.33,23.99c-0.18-2-3.43-1.82-3.43,0.06v13.33c0,1.17,2.19,2.17,3.2,0.67c0.3-0.53,0.24-1.27,0.24-2.11
	c0-1.55,0-3.12,0-4.69c0-1.65-0.18-3.03,0.59-4.02c1.01-1.4,2.19-1.57,3.85-1.57c1.18,0,2.49,0.61,3.08,1.52
	c0.77,1.07,0.77,2.17,0.77,3.93c0,1.55,0,3.12,0,4.69c0,0.78-0.06,1.62,0.24,2.14c0.77,1.35,3.26,1.23,3.26-1.16
	c0-1.76,0.12-6.62-0.12-8.14c-0.35-2.38-1.36-4.24-3.49-5.39c-0.18-0.09-0.18-0.11-0.36-0.19c-2.13-0.99-4.86-0.84-6.87,0.3
	C136.92,23.56,136.63,23.76,136.33,23.99"/>
<path class="st0" d="M69.29,26.71c0,1.4,0.24,2.35,1.24,3.28c1.13,0.98,2.67,1.44,4.15,1.8c0.24,0.06,0.53,0.08,0.83,0.14
	c0.89,0.22,3.08,0.76,3.08,1.9c0,0.75-0.06,1.1-0.89,1.52c-1.24,0.62-3.32,0.44-4.56-0.08c-0.24-0.09-0.3-0.17-0.53-0.28
	c-0.89-0.44-1.78-2.05-3.38-0.76c-0.18,0.12-0.3,0.26-0.41,0.43c-1.3,2.35,3.02,3.63,4.5,3.99c1.54,0.36,3.26,0.29,4.74-0.08
	c3.61-0.89,4.68-4.35,3.55-6.49c-0.41-0.81-1.18-1.57-2.01-1.97c-1.24-0.59-2.49-0.9-3.79-1.2c-1.42-0.3-3.2-0.61-3.2-2.05
	c0-1.44,3.85-1.75,5.45-0.61c0.47,0.3,1.95,1.79,3.2,0.65c1.78-1.65-1.9-4.44-5.21-4.44c-1.84,0-3.38,0.06-4.97,1.18
	c-0.47,0.34-0.89,0.71-1.19,1.21C69.58,25.36,69.29,25.95,69.29,26.71"/>
<path class="st0" d="M11.71,26.84c0,0.68,0.12,1.28,0.35,1.8c1.94,3.89,8.92,2.35,8.92,5.32c0,0.23-0.18,0.57-0.29,0.72
	c-0.18,0.25-0.29,0.31-0.59,0.45c-1.53,0.75-4.34,0.45-5.57-0.63c-0.82-0.77-1.58-1.46-2.87-0.38c-0.35,0.32-0.53,0.55-0.59,1.14
	c-0.12,1.95,3.7,3.03,5.28,3.29c2.99,0.52,7.1-0.38,7.92-3.75c0.18-0.94,0.06-2.14-0.29-2.89c-0.88-1.55-2.29-2.17-4.11-2.71
	c-1.29-0.35-4.81-0.75-4.81-2.06v-0.45c0-1.28,3.64-1.71,5.4-0.51c0.59,0.38,1.11,1.03,2.05,1.03c1.29,0,2.46-1.62,0.41-3.2
	c-1.88-1.45-3.4-1.6-5.75-1.6C14.88,22.41,11.71,23.95,11.71,26.84"/>
<path class="st0" d="M51.87,18.01v14.07c0,2,0.18,3.29,0.95,4.55c0.65,1.09,2.01,2.11,3.32,2.11c0.71,0,1.42,0.05,2.07-0.51
	c1.18-1.07,0.41-2.87-1.01-2.9c-0.71-0.02-0.95,0.14-1.3-0.28c-0.24-0.26-0.47-0.78-0.53-1.16c-0.18-1.49-0.06-10.66-0.06-12.92
	c0-1.09,0-2.17,0-3.26c0-0.68-0.06-0.93-0.41-1.29C54.3,15.67,51.87,15.31,51.87,18.01"/>
<path class="st0" d="M60.52,17.41v16.26c0,2.44,1.84,5.08,4.15,5.08c0.89,0,1.24,0.06,2.01-0.43c1.24-0.84,0.65-2.95-0.95-2.98
	c-0.71-0.02-1.54,0.2-1.78-1.46c-0.12-0.78,0-14.2-0.06-16.25C63.84,15.2,60.52,15.47,60.52,17.41"/>
<path class="st0" d="M88.42,15.12c0,1.97,0.06,3.12,0.95,4.92c0.18,0.48,1.3,2.45,1.95,2.5c0-2.76,2.19-5.13,4.38-6.48
	c0.89-0.51,1.6-0.82,2.55-1.16c0.47-0.16,0.95-0.26,1.42-0.39c0.71-0.2,0.71-0.51,0.41-1.01c-0.41-0.82-0.95-1.41-1.6-2.03
	c-0.12-0.16-0.3-0.25-0.47-0.4c-0.18-0.16-0.36-0.23-0.53-0.37c-2.37-1.58-5.8-2.22-7.7,0.42c-0.36,0.56-0.65,1.06-0.89,1.76
	C88.65,13.46,88.42,14.35,88.42,15.12"/>
<path class="st0" d="M44.17,24.06v13.17c0,0.9,0.95,1.52,1.42,1.52h0.47c1.01,0,1.6-0.93,1.6-1.97V24.44c0-1.88-1.89-2.35-2.96-1.46
	C44.47,23.17,44.17,23.65,44.17,24.06"/>
<path class="st1" d="M98.43,30.42v0.53c0,1.69,1.6,3.18,3.26,3.18c2.55,0,4.15-2.47,3.2-4.72c-1.01-2.28-3.85-2.66-5.33-1.21
	C99.02,28.72,98.43,29.43,98.43,30.42"/>
<path class="st2" d="M117.5,30.72c0,3.62,4.74,4.63,6.34,1.62c0.41-0.71,0.36-1.09,0.36-1.83c0-1.06-0.53-1.72-1.07-2.25
	c-0.95-0.93-2.55-1.16-3.73-0.57C118.27,28.23,117.5,29.38,117.5,30.72"/>
<path class="st0" d="M127.33,19.97c0.53-0.36,1.24-2.07,1.24-3.03c0-1.37,0.06-0.89-0.18-2.19c-0.12-0.36-0.3-0.84-0.47-1.13
	c-1.07-1.85-4.21-0.99-5.69,0.15c-0.41,0.36-0.77,0.71-1.12,1.18c-0.83,1.1,0.47,0.81,2.43,1.69c0.3,0.12,0.47,0.25,0.71,0.4
	c0.3,0.17,0.47,0.25,0.77,0.47C125.97,18.2,126.68,19.01,127.33,19.97"/>
<path class="st0" d="M183.3,46.84v0.53c0,1.6,1.78,2.67,3.2,1.85c0.3-0.17,0.41-0.37,0.65-0.56c0,0.61-0.06,0.99-0.3,1.37
	c-0.36,0.62-0.95,0.61-1.54,0.61c-0.95,0-1.18-1.62-1.84-0.39c0.18,0.39,0.36,0.62,0.71,0.84c1.48,0.9,3.85,0.26,3.85-2.11
	c0-1.43,0.24-2.69-0.65-3.59C185.96,43.89,183.3,44.84,183.3,46.84 M185.31,45.55h0.53c1.6,0,2.01,3.11-0.35,3.11
	c-0.53,0-1.24-0.59-1.3-1.46C184.07,46.44,184.72,45.55,185.31,45.55z"/>
<path class="st0" d="M43.7,18.39c0,1.96,2.31,2.86,3.67,1.62c1.42-1.3,0.41-3.74-1.24-3.74c-0.77,0-1.18,0-1.84,0.67
	C44,17.25,43.7,17.78,43.7,18.39"/>
<path class="st0" d="M129.94,46.84v0.39c0,1.89,2.25,2.83,3.85,1.91c0.53-0.34,0.53-0.85-0.18-0.85c-0.18,0-0.53,0.37-1.3,0.37
	c-0.65,0-1.42-0.53-1.42-1.21c0.53,0,3.14,0.12,3.44-0.11c0.47-0.36,0-2.69-2.01-2.69C131,44.65,129.94,45.69,129.94,46.84
	 M131.95,45.55c0.59,0,1.54-0.08,1.66,1.13h-2.72c0-0.34,0.12-0.54,0.3-0.73C131.36,45.8,131.65,45.55,131.95,45.55z"/>
<path class="st0" d="M151.97,46.69c0,0.92-0.06,1.43,0.71,2.19c0.3,0.31,0.89,0.62,1.48,0.62c0.77,0,1.18-0.4,1.6-0.68
	c0.06,0.99,1.01,0.75,1.01,0.08c0-1.58,0.24-3.18-1.36-3.96C153.68,44.06,151.97,45.51,151.97,46.69 M154.04,45.55h0.59
	c1.13,0,1.84,2.13,0.41,2.9c-1.6,0.89-2.96-1.4-1.78-2.5C153.45,45.8,153.74,45.55,154.04,45.55z"/>
<path class="st0" d="M98.72,46.84c0,0.85,0,1.32,0.71,2.04c1.18,1.21,4.03,0.7,4.03-1.8C103.46,43.86,98.72,43.95,98.72,46.84
	 M100.74,45.55h0.65c1.42,0,1.96,3.11-0.47,3.11c-0.77,0-1.9-1.26-1.01-2.55C100.03,45.89,100.44,45.55,100.74,45.55z"/>
<path class="st0" d="M165.06,45.1c-0.36-0.26,0-0.37-0.65-0.37c-0.24,0-0.42,0.26-0.42,0.53v3.63c0,0.67,1.01,0.98,1.01-0.23
	c0-0.51-0.12-2.25,0.12-2.61c0.12-0.19,0-0.02,0.12-0.16c0.47-0.43,1.36-0.45,1.78-0.17c0.53,0.36,0.53,0.67,0.53,1.49
	c0,0.47,0,0.92,0,1.37c0,1.49,0.95,0.82,0.95,0.53c0-1.97,0.36-3.62-1.18-4.26C166.48,44.5,165.77,44.65,165.06,45.1"/>
<path class="st0" d="M107.37,45.18c-0.06-0.75-0.95-0.47-0.95-0.08v3.87c0,0.54,0.36,0.67,0.95,0.3c0-0.78,0-1.57,0-2.35
	c-0.06-1.8,1.84-1.54,2.31-0.96c0.53,0.62,0.3,2.39,0.3,3.31c1.24,0.82,0.95-0.99,0.95-2.5c0-0.57-0.3-1.18-0.59-1.49
	C109.56,44.39,108.2,44.61,107.37,45.18"/>
<path class="st0" d="M123.54,45.1c-0.06-0.62-0.89-0.42-0.89,0v3.93c0,0.19,0.12,0.37,0.3,0.42c1.13,0.33,0.47-2.35,0.71-3.2
	c0.12-0.67,0.83-0.7,1.36-0.7c1.54,0,1.18,2.22,1.18,3.71c1.18,0.81,0.89-0.78,0.89-2.42c0-1.77-1.48-2.52-2.84-2.04
	C123.95,44.92,123.83,45.07,123.54,45.1"/>
<path class="st0" d="M176.84,45.18c0-0.62-0.47-0.47-0.83-0.37c-0.12,0.73-0.06,3.23-0.06,4.16c0,0.59,0.95,0.98,0.89-0.31
	c0-0.59-0.06-2.16,0.18-2.58c0.47-0.75,1.84-0.7,2.25-0.05c0.53,0.82-0.3,3.34,0.65,3.46c0.18-0.06,0.47-0.2,0.47-0.47
	c0-1.74,0.35-3.4-1.13-4.15C178.44,44.43,177.61,44.7,176.84,45.18"/>
<path class="st0" d="M141.6,43.74v1.07c-1.18,0-0.71,0.82-0.41,0.82h0.41c0,1.4-0.3,3.87,1.66,3.87c0.41,0,0.89-0.28,0.41-0.99
	c-0.3,0-0.59,0.03-0.77-0.06c-0.47-0.28-0.3-1.94-0.3-2.81c0.24,0,1.12,0.09,1.12-0.3c0-0.65-0.53-0.53-1.12-0.53
	c0-1.21,0.12-1.6-0.59-1.6C141.72,43.21,141.6,43.49,141.6,43.74"/>
<path class="st0" d="M113.83,43.07v5.06c0,1.3,1.89,1.86,1.89,0.84c0-0.22,0-0.22-0.06-0.39c-0.71-0.16-0.89,0.08-0.89-0.9v-3.63
	c0-0.67,0.12-1.37-0.53-1.37C114.06,42.68,113.83,42.88,113.83,43.07"/>
<path class="st0" d="M147.58,45.18c-0.18-0.39,0-0.45-0.59-0.45c-0.3,0-0.36,0.37-0.36,0.68c0,0.59-0.12,3.54,0.06,3.85
	c0.06,0.09,0.18,0.23,0.3,0.23c0.89,0,0.59-1.35,0.59-2.97c0.06-1.77,2.37-0.31,2.37-1.43c0-0.28-0.65-0.45-0.95-0.45
	C148.35,44.65,148,44.95,147.58,45.18"/>
<path class="st0" d="M171.63,45.26v3.63c0,0.82,1.01,0.64,1.01,0.14v-3.77C172.64,44.53,171.63,44.53,171.63,45.26"/>
<path class="st0" d="M118.44,44.81c-0.18,0.73-0.06,3.37-0.06,4.3c0,0.43,0.89,0.64,0.89-0.14V45.1
	C119.27,44.73,118.86,44.65,118.44,44.81"/>
<path class="st0" d="M159.9,44.81c-0.18,0.73-0.06,3.37-0.06,4.3c0,0.43,0.89,0.64,0.89-0.14V45.1
	C160.73,44.73,160.32,44.65,159.9,44.81"/>
<path class="st0" d="M159.67,43.36c0,0.67,0.77,0.75,1.07,0.43C161.5,42.94,159.67,42.34,159.67,43.36"/>
<path class="st0" d="M118.27,43.36c0,0.85,1.18,0.73,1.18,0.08C119.45,42.57,118.27,42.68,118.27,43.36"/>
<path class="st0" d="M171.57,43.36c0,0.78,1.13,0.89,1.13,0C172.7,42.63,171.57,42.63,171.57,43.36"/>
</svg>
